<?xml version="1.0" encoding="utf-8"?>
<!-- Generator: Adobe Illustrator 24.1.2, SVG Export Plug-In . SVG Version: 6.00 Build 0)  -->
<svg version="1.1" id="Calque_1" xmlns="http://www.w3.org/2000/svg" xmlns:xlink="http://www.w3.org/1999/xlink" x="0px" y="0px"
	 viewBox="0 0 37 36" style="enable-background:new 0 0 37 36;" xml:space="preserve">
<style type="text/css">
	.st0{fill:#FFFFFF;}
</style>
<g>
	<g>
		<g>
			<g>
				<path class="st0" d="M10.04,35.69c-4.9,0-8.89-3.99-8.89-8.89V9.71c0-4.9,3.99-8.89,8.89-8.89h17.97c4.9,0,8.89,3.99,8.89,8.89
					v17.1c0,4.9-3.99,8.89-8.89,8.89H10.04z M10.04,2.62c-3.91,0-7.09,3.18-7.09,7.09v17.1c0,3.91,3.18,7.09,7.09,7.09h17.97
					c3.91,0,7.09-3.18,7.09-7.09V9.71c0-3.91-3.18-7.09-7.09-7.09H10.04z"/>
			</g>
		</g>
		<g>
			<g>
				<path class="st0" d="M19.03,26.42c-4.58,0-8.31-3.73-8.31-8.31c0-4.58,3.73-8.31,8.31-8.31c4.58,0,8.31,3.73,8.31,8.31
					C27.33,22.69,23.61,26.42,19.03,26.42z M19.03,11.61c-3.59,0-6.51,2.92-6.51,6.51c0,3.59,2.92,6.51,6.51,6.51
					c3.59,0,6.51-2.92,6.51-6.51C25.53,14.53,22.61,11.61,19.03,11.61z"/>
			</g>
		</g>
	</g>
</g>
</svg>
